<svg x="0" y="0" width="48" height="48" version="1.1" xmlns="http://www.w3.org/2000/svg" xmlns:xlink="http://www.w3.org/1999/xlink"><defs><linearGradient x1="11.73361" y1="11.68966" x2="57.47958" y2="57.52354" gradientUnits="userSpaceOnUse" id="color-1"><stop offset="0.03" stop-color="#000000" stop-opacity="0.7"></stop><stop offset="1" stop-color="#000000" stop-opacity="0"></stop></linearGradient><filter id="dropshadow"><feColorMatrix type="matrix" values="0 0 0 0 .05  0 0 0 0 .15  0 0 0 0 .1  0 0 0 .8 0"></feColorMatrix> <feOffset dx="0" dy="1"></feOffset> <feGaussianBlur stdDeviation="1"></feGaussianBlur> <feComposite in="SourceGraphic"></feComposite></filter></defs><g fill="none" stroke="none" stroke-width="none" stroke-linecap="butt" stroke-linejoin="miter" stroke-miterlimit="none" stroke-dasharray="" stroke-dashoffset="0" font-family="none" font-weight="normal" font-size="none" text-anchor="start" mix-blend-mode="normal"><g fill="#000000" stroke="none" stroke-width="1" stroke-miterlimit="4" font-family="&quot;Open Sans&quot;, sans-serif" font-size="14"><g></g></g><g fill="#f98f00" stroke="none" stroke-width="1" stroke-miterlimit="4" font-family="&quot;Open Sans&quot;, sans-serif" font-size="14"><g></g></g><path d="M5,45c-1.10457,0 -2,-0.89543 -2,-2l0,-38c0,-1.10457 0.89543,-2 2,-2l38,0c1.10457,0 2,0.89543 2,2l0,38c0,1.10457 -0.89543,2 -2,2z" fill="#ef6c00" stroke-width="1" stroke-miterlimit="10" font-family="sans-serif" font-size="12" filter="url(#dropshadow)"></path><path d="M34.51203,29.38506c0.22856,0.1415 0.44141,0.30879 0.63299,0.50037c0,0 9.85498,9.85498 9.85498,9.85498l0,3.25959c0,1.10457 -0.89543,2 -2,2l-20.26397,0l-9.79077,-9.79077c-0.85714,-0.85714 -1.38097,-2.08399 -1.16173,-3.19585c0.19406,-1.16434 1.69106,-2.82767 2.63362,-2.96629l0.00001,0.00001c0.58216,-0.08317 0.60988,-0.16635 0.60988,-5.04546l0,-3.92351c0,0 -2.0298,-2.0298 -2.0298,-2.0298c0.00159,0.00159 0.00317,0.00317 0.00476,0.00475l-0.00475,-0.00475c-1.06941,-1.06941 -1.46701,-2.98095 -0.71471,-4.44254l-0.00001,-0.00001c0.44356,-0.83167 1.35839,-1.52473 2.24551,-1.77423c0.998,-0.2495 1.33067,-0.19406 2.49501,0.36039c0.39551,0.19497 0.74064,0.44478 1.03046,0.7346z" fill="url(#color-1)" stroke-width="1" stroke-miterlimit="10" font-family="sans-serif" font-size="12"></path><path d="M17.02305,12.19194c1.96828,0.97028 2.68906,3.29895 1.55245,5.15635c-0.44356,0.7485 -2.02373,1.77423 -2.71678,1.77423c-0.11089,0 -0.19406,2.21778 -0.16633,4.90685l0.05544,4.93457l0.83167,0.22178c0.91484,0.22178 2.16234,1.55245 2.41184,2.57817l0.16633,0.66534l4.82368,0c4.38012,0 4.8514,-0.05544 4.99001,-0.499c0.499,-1.55245 0.83167,-2.05145 1.63562,-2.55045c1.82967,-1.13661 4.32468,-0.44356 5.21179,1.46928c0.58217,1.19206 0.58217,1.85739 0.08317,3.1049c-1.02572,2.43956 -4.90685,2.79995 -6.37613,0.58217c-0.2495,-0.38811 -0.44356,-0.88711 -0.44356,-1.13661c0,-0.36039 -0.69306,-0.41583 -4.93457,-0.41583l-4.90685,0l-0.55445,1.13661c-0.60989,1.30295 -1.99601,2.19006 -3.3544,2.19006c-1.99601,0 -3.93657,-2.32867 -3.54845,-4.29696c0.19406,-1.16434 1.69106,-2.82767 2.63362,-2.96629c0.58217,-0.08317 0.60989,-0.16633 0.60989,-5.04546l0,-4.96229l-0.94256,-0.30495c-1.82967,-0.60989 -2.77223,-3.24351 -1.80195,-5.12862c0.44356,-0.83167 1.35839,-1.52473 2.24551,-1.77423c0.998,-0.2495 1.33067,-0.19406 2.49501,0.36039z M13.89043,30.21143c-1.69106,1.05345 -1.85739,3.24351 -0.30495,4.54646c1.41384,1.19206 3.3544,0.88711 4.3524,-0.69306c0.69306,-1.10889 0.52672,-1.46928 -0.52672,-1.2475c-0.58217,0.11089 -0.80395,0.05544 -0.80395,-0.2495c0,-0.30495 0.22178,-0.36039 0.83167,-0.2495c1.16434,0.2495 1.10889,-0.499 -0.11089,-1.71878c-1.21978,-1.21978 -1.96828,-1.27523 -1.71878,-0.11089c0.11089,0.60989 0.05544,0.83167 -0.2495,0.83167c-0.30495,0 -0.36039,-0.22178 -0.22178,-0.83167c0.19406,-0.97028 -0.02772,-1.02572 -1.2475,-0.27722z M14.16765,12.885c-2.30095,0.998 -1.99601,4.51873 0.47128,5.26724c0.60989,0.19406 0.66534,0.13861 0.499,-0.66534c-0.13861,-0.66534 -0.08317,-0.85939 0.22178,-0.85939c0.30495,0 0.38811,0.19406 0.2495,0.66534c-0.2495,1.02572 0.05544,1.27523 0.998,0.80395c1.60789,-0.77622 2.21778,-3.27123 1.08117,-4.49101c-0.30495,-0.33267 -0.88711,-0.72078 -1.27523,-0.88711c-0.88711,-0.33267 -1.13661,-0.30495 -2.24551,0.16633z M32.79703,29.74015c-1.46928,-0.11089 -2.24551,0.30495 -2.8554,1.497c-0.52672,0.998 -0.38811,1.27523 0.52672,1.08117c0.60989,-0.11089 0.83167,-0.05544 0.83167,0.2495c0,0.2495 -0.2495,0.36039 -0.72078,0.33267c-0.998,-0.08317 -1.08117,0.33267 -0.30495,1.30295c0.52672,0.63761 0.91484,0.83167 2.05145,0.91484c1.2475,0.13861 1.52473,0.05544 2.13462,-0.55445c1.19206,-1.19206 1.27523,-2.77223 0.22178,-4.07518c-0.36039,-0.44356 -0.88711,-0.66534 -1.88512,-0.7485z M33.76731,31.48666c0.72078,0.91484 0.72078,1.16434 -0.02772,1.96828c-0.72078,0.7485 -1.66334,0.83167 -2.19006,0.13861c-0.36039,-0.41583 -0.33267,-0.44356 0.08317,-0.11089c1.16434,0.91484 2.8554,-0.52672 2.05145,-1.7465c-0.47128,-0.69306 -1.35839,-0.85939 -1.82967,-0.27722c-0.19406,0.22178 -0.499,0.41583 -0.66534,0.41583c-0.16633,-0.02772 0,-0.27722 0.36039,-0.55445c0.88711,-0.7485 1.55245,-0.69306 2.21778,0.16633z M16.60721,14.40973c0.69306,0.69306 0.72078,1.46928 0.08317,1.96828c-0.41583,0.30495 -0.44356,0.30495 -0.13861,-0.02772c0.47128,-0.52672 0.41583,-1.10889 -0.13861,-1.71878c-1.10889,-1.21978 -2.91084,0.11089 -2.02373,1.52473c0.33267,0.55445 0.33267,0.58217 -0.08317,0.22178c-0.60989,-0.47128 -0.60989,-1.35839 0,-2.02373c0.58217,-0.66534 1.60789,-0.63761 2.30095,0.05544z M13.69637,32.87277l0.77622,0.60989c0.63761,0.47128 0.91484,0.52672 1.497,0.30495c0.63761,-0.22178 0.66534,-0.22178 0.36039,0.16633c-0.52672,0.60989 -1.19206,0.499 -1.96828,-0.33267z M14.30626,32.01338c-0.19406,0.38811 -0.44356,0.69306 -0.55445,0.69306c-0.22178,0 -0.05544,-0.38811 0.44356,-1.05345c0.41583,-0.52672 0.44356,-0.38811 0.11089,0.36039z" fill="#fafafa" stroke-width="0" stroke-miterlimit="10" font-family="sans-serif" font-size="12"></path></g></svg>