<svg x="0" y="0" width="48" height="48" version="1.1" xmlns="http://www.w3.org/2000/svg" xmlns:xlink="http://www.w3.org/1999/xlink"><defs><linearGradient x1="11.68966" y1="17.28527" x2="57.52354" y2="51.92793" gradientUnits="userSpaceOnUse" id="color-1"><stop offset="0" stop-color="#000000" stop-opacity="0.7"></stop><stop offset="1" stop-color="#000000" stop-opacity="0"></stop></linearGradient><filter id="dropshadow"><feColorMatrix type="matrix" values="0 0 0 0 .05  0 0 0 0 .15  0 0 0 0 .1  0 0 0 .8 0"></feColorMatrix> <feOffset dx="0" dy="1"></feOffset> <feGaussianBlur stdDeviation="1"></feGaussianBlur> <feComposite in="SourceGraphic"></feComposite></filter></defs><g fill="none" stroke="none" stroke-width="none" stroke-linecap="butt" stroke-linejoin="miter" stroke-miterlimit="none" stroke-dasharray="" stroke-dashoffset="0" font-family="none" font-weight="normal" font-size="none" text-anchor="start" mix-blend-mode="normal"><g fill="#000000" stroke="none" stroke-width="1" stroke-miterlimit="4" font-family="&quot;Open Sans&quot;, sans-serif" font-size="14"></g><g fill="#000000" stroke="none" stroke-width="1" stroke-miterlimit="4" font-family="&quot;Open Sans&quot;, sans-serif" font-size="14"></g><path d="M3,24c0,-11.59798 9.40202,-21 21,-21c11.59798,0 21,9.40202 21,21c0,11.59798 -9.40202,21 -21,21c-11.59798,0 -21,-9.40202 -21,-21z" fill="#2196f3" stroke-width="1" stroke-miterlimit="10" font-family="sans-serif" font-size="12" filter="url(#dropshadow)"></path><path d="M29.24655,44.3393c0,0 -15.59073,-15.59073 -15.59073,-15.59073c-1.21495,-1.21494 -1.96616,-2.89363 -1.96616,-4.74857c0,-3.70989 3.00484,-6.71473 6.71473,-6.71473c1.85016,0 3.52295,0.74985 4.7354,1.9623c0,0 2.51419,2.51419 2.51419,2.51419l10.65636,0l0,-0.00001l7.91374,7.91374c-2.01017,7.17788 -7.73889,12.80202 -14.97754,14.6638z" fill="url(#color-1)" stroke-width="1" stroke-miterlimit="10" font-family="sans-serif" font-size="12"></path><path d="M36.31034,21.76176l0,4.47649l-2.23824,0l0,4.47649l-4.47649,0l0,-4.47649l-4.86818,0c-0.92328,2.60755 -3.40213,4.47649 -6.32304,4.47649c-3.70989,0 -6.71473,-3.00484 -6.71473,-6.71473c0,-3.70989 3.00484,-6.71473 6.71473,-6.71473c2.92091,0 5.39976,1.86893 6.32304,4.47649z M20.64264,24c0,-1.23663 -1.00161,-2.23824 -2.23824,-2.23824c-1.23663,0 -2.23824,1.00161 -2.23824,2.23824c0,1.23663 1.00161,2.23824 2.23824,2.23824c1.23663,0 2.23824,-1.00161 2.23824,-2.23824z" fill="#ffffff" stroke="none" stroke-width="0" stroke-miterlimit="4" font-family="&quot;Open Sans&quot;, sans-serif" font-size="14"></path></g></svg>