<svg x="0" y="0" width="48" height="48" version="1.1" xmlns="http://www.w3.org/2000/svg" xmlns:xlink="http://www.w3.org/1999/xlink"><defs><linearGradient x1="15.38276" y1="11.68966" x2="53.83044" y2="57.52354" gradientUnits="userSpaceOnUse" id="color-1"><stop offset="0.14" stop-color="#000000" stop-opacity="0.26"></stop><stop offset="1" stop-color="#000000" stop-opacity="0"></stop></linearGradient><filter id="dropshadow"><feColorMatrix type="matrix" values="0 0 0 0 .05  0 0 0 0 .15  0 0 0 0 .1  0 0 0 .8 0"></feColorMatrix> <feOffset dx="0" dy="1"></feOffset> <feGaussianBlur stdDeviation="1"></feGaussianBlur> <feComposite in="SourceGraphic"></feComposite></filter></defs><g fill="none" stroke="none" stroke-width="none" stroke-linecap="butt" stroke-linejoin="miter" stroke-miterlimit="none" stroke-dasharray="" stroke-dashoffset="0" font-family="none" font-weight="normal" font-size="none" text-anchor="start" mix-blend-mode="normal"><g fill="#000000" stroke="none" stroke-width="1" stroke-miterlimit="4" font-family="&quot;Open Sans&quot;, sans-serif" font-size="14"></g><path d="M3,24c0,-11.59798 9.40202,-21 21,-21c11.59798,0 21,9.40202 21,21c0,11.59798 -9.40202,21 -21,21c-11.59798,0 -21,-9.40202 -21,-21z" fill="#3f51b5" stroke-width="1" stroke-miterlimit="10" font-family="sans-serif" font-size="12" filter="url(#dropshadow)"></path><path d="M31.36272,43.67306l-7.36272,-7.36272c0,0 -8.61724,-9.54051 -8.61724,-16.00344c0,-4.75795 3.85929,-8.61724 8.61724,-8.61724c2.37897,0 4.53328,0.96482 6.09285,2.52439l14.39889,14.39889c-1.55831,6.95245 -6.56431,12.60215 -13.12902,15.06012z" fill="url(#color-1)" stroke-width="1" stroke-miterlimit="10" font-family="sans-serif" font-size="12"></path><path d="M32.61724,20.3069c0,6.46293 -8.61724,16.00344 -8.61724,16.00344c0,0 -8.61724,-9.54051 -8.61724,-16.00344c0,-4.75795 3.85929,-8.61724 8.61724,-8.61724c4.75795,0 8.61724,3.85929 8.61724,8.61724z M27.07758,20.3069c0,-1.69883 -1.37876,-3.07758 -3.07758,-3.07758c-1.69883,0 -3.07758,1.37876 -3.07758,3.07758c0,1.69883 1.37876,3.07758 3.07758,3.07758c1.69883,0 3.07758,-1.37876 3.07758,-3.07758z" fill="#ffffff" stroke="none" stroke-width="0" stroke-miterlimit="4" font-family="&quot;Open Sans&quot;, sans-serif" font-size="14"></path></g></svg>