<svg x="0" y="0" width="48" height="48" version="1.1" xmlns="http://www.w3.org/2000/svg" xmlns:xlink="http://www.w3.org/1999/xlink"><defs><linearGradient x1="11.10349" y1="13.06601" x2="44.03464" y2="42.07213" gradientUnits="userSpaceOnUse" id="color-1"><stop offset="0" stop-color="#000000" stop-opacity="0.17"></stop><stop offset="1" stop-color="#000000" stop-opacity="0"></stop></linearGradient><filter id="dropshadow"><feColorMatrix type="matrix" values="0 0 0 0 .05  0 0 0 0 .15  0 0 0 0 .1  0 0 0 .8 0"></feColorMatrix> <feOffset dx="0" dy="1"></feOffset> <feGaussianBlur stdDeviation="1"></feGaussianBlur> <feComposite in="SourceGraphic"></feComposite></filter></defs><g fill="none" stroke="none" stroke-width="none" stroke-linecap="butt" stroke-linejoin="miter" stroke-miterlimit="none" stroke-dasharray="" stroke-dashoffset="0" font-family="none" font-weight="normal" font-size="none" text-anchor="start" mix-blend-mode="normal"><g fill="#000000" stroke="none" stroke-width="1" stroke-miterlimit="4" font-family="&quot;Open Sans&quot;, sans-serif" font-size="14"></g><path d="M3,24c0,-11.59798 9.40202,-21 21,-21c11.59798,0 21,9.40202 21,21c0,11.59798 -9.40202,21 -21,21c-11.59798,0 -21,-9.40202 -21,-21z" fill="#bf2437" stroke-width="1" stroke-miterlimit="10" font-family="sans-serif" font-size="12" filter="url(#dropshadow)"></path><path d="M35.06316,38.14711c0,0 0,2.24286 0,2.24286l-8.97148,0l0,0.00001l-2.24288,-2.24288l-3.3643,0c-0.62099,0 -1.18057,-0.25119 -1.58549,-0.65609l-7.13814,-7.13814c-0.40673,-0.40674 -0.65739,-0.96859 -0.65739,-1.58677c0,0 0,-0.00001 0,-0.00001l0,-13.45721c0,-1.2448 0.99808,-2.24288 2.24288,-2.24288l20.18583,0c0.61818,0 1.18005,0.25066 1.58679,0.65739l7.13814,7.13814c0.4049,0.4049 0.65609,0.96449 0.65609,1.58549l0,8.97148l-2.24288,0l-7.13814,-7.13814l0,-1.83334l-4.0762,0l12.48048,12.48048c-1.25353,2.05316 -2.84969,3.8743 -4.70899,5.38392l-2.16431,-2.16431z M23.84882,22.44702c0,0 -0.00001,0 -0.00001,0l6.31908,6.31908l0.00001,0z M20.4845,24.6899c0,0 0,4.0762 0,4.0762l4.0762,0z M33.12267,30.29706l-1.42382,0l0.71191,0.71191z" fill="url(#color-1)" stroke-width="1" stroke-miterlimit="10" font-family="sans-serif" font-size="12"></path><path d="M35.77507,15.30888l0,8.97148l-2.24287,0l0,-8.97148l-20.18583,0l0,13.45722l16.82153,0l0,2.24287l-2.24287,0l0,2.24287l-8.97148,0l0,-2.24287l-5.60718,0c-1.24479,0 -2.24287,-1.00929 -2.24287,-2.24287l0,-13.45722c0,-1.24479 0.99808,-2.24287 2.24287,-2.24287l20.18583,0c1.23358,0 2.24287,0.99808 2.24287,2.24287z M27.92502,20.91605l0,2.24287l-3.36431,0l0,3.36431l-2.24287,0l0,-3.36431l-3.36431,0l0,-2.24287l3.36431,0l0,-3.36431l2.24287,0l0,3.36431z M36.8965,29.88753l-5.04646,5.04646l-1.68215,-1.68215l3.36431,-3.36431l-3.36431,-3.36431l1.68215,-1.68215z" fill="#ffffff" stroke="none" stroke-width="0" stroke-miterlimit="4" font-family="&quot;Open Sans&quot;, sans-serif" font-size="14"></path></g></svg>